<svg xmlns="http://www.w3.org/2000/svg" xmlns:xlink="http://www.w3.org/1999/xlink" width="500" zoomAndPan="magnify" viewBox="0 0 375 374.999991" height="500" preserveAspectRatio="xMidYMid meet" version="1.0"><defs><filter x="0%" y="0%" width="100%" height="100%" id="e145189de8"><feColorMatrix values="0 0 0 0 1 0 0 0 0 1 0 0 0 0 1 0 0 0 1 0" color-interpolation-filters="sRGB"/></filter><g/><mask id="69ed984774"><g filter="url(#e145189de8)"><rect x="-37.5" width="450" fill="#000000" y="-37.499999" height="449.999989" fill-opacity="0.81"/></g></mask><clipPath id="a11795593b"><path d="M 0.558594 1.109375 L 126.320312 1.109375 L 126.320312 133.859375 L 0.558594 133.859375 Z M 0.558594 1.109375 " clip-rule="nonzero"/></clipPath><clipPath id="673e066fca"><path d="M 72.914062 62.957031 L 16.460938 62.957031 C 14.269531 62.957031 12.683594 60.867188 13.277344 58.757812 L 28.777344 3.523438 C 29.175781 2.097656 30.476562 1.109375 31.957031 1.109375 L 88.414062 1.109375 C 90.601562 1.109375 92.1875 3.199219 91.59375 5.308594 L 76.097656 60.542969 C 75.695312 61.96875 74.394531 62.957031 72.914062 62.957031 Z M 36.246094 104.648438 L 44.226562 76.207031 C 44.816406 74.101562 43.234375 72.011719 41.042969 72.011719 L 12.023438 72.011719 C 10.542969 72.011719 9.242188 72.996094 8.839844 74.421875 L 0.859375 102.863281 C 0.269531 104.972656 1.851562 107.0625 4.042969 107.0625 L 33.0625 107.0625 C 34.546875 107.0625 35.84375 106.074219 36.246094 104.648438 Z M 50.929688 74.421875 L 35.433594 129.65625 C 34.839844 131.765625 36.425781 133.855469 38.613281 133.855469 L 95.070312 133.855469 C 96.550781 133.855469 97.851562 132.871094 98.25 131.445312 L 113.75 76.207031 C 114.34375 74.101562 112.757812 72.011719 110.566406 72.011719 L 54.113281 72.011719 C 52.632812 72.011719 51.332031 72.996094 50.929688 74.421875 Z M 90.78125 30.316406 L 82.800781 58.757812 C 82.210938 60.867188 83.792969 62.957031 85.984375 62.957031 L 115.003906 62.957031 C 116.484375 62.957031 117.785156 61.96875 118.1875 60.542969 L 126.167969 32.101562 C 126.757812 29.996094 125.175781 27.90625 122.984375 27.90625 L 93.964844 27.90625 C 92.484375 27.90625 91.183594 28.890625 90.78125 30.316406 Z M 90.78125 30.316406 " clip-rule="nonzero"/></clipPath><linearGradient x1="114.454436" gradientTransform="matrix(0.265492, 0, 0, 0.265492, 0.735719, 1.109943)" y1="-47.249038" x2="358.383712" gradientUnits="userSpaceOnUse" y2="547.053824" id="25266919ea"><stop stop-opacity="1" stop-color="rgb(21.998596%, 71.398926%, 100%)" offset="0"/><stop stop-opacity="1" stop-color="rgb(21.998596%, 71.398926%, 100%)" offset="0.0625"/><stop stop-opacity="1" stop-color="rgb(21.998596%, 71.398926%, 100%)" offset="0.078125"/><stop stop-opacity="1" stop-color="rgb(21.998596%, 71.398926%, 100%)" offset="0.0859375"/><stop stop-opacity="1" stop-color="rgb(21.948242%, 71.235657%, 99.771118%)" offset="0.0898438"/><stop stop-opacity="1" stop-color="rgb(21.899414%, 71.072388%, 99.542236%)" offset="0.09375"/><stop stop-opacity="1" stop-color="rgb(21.783447%, 70.697021%, 99.015808%)" offset="0.0976563"/><stop stop-opacity="1" stop-color="rgb(21.66748%, 70.321655%, 98.48938%)" offset="0.101563"/><stop stop-opacity="1" stop-color="rgb(21.551514%, 69.944763%, 97.962952%)" offset="0.105469"/><stop stop-opacity="1" stop-color="rgb(21.435547%, 69.569397%, 97.438049%)" offset="0.109375"/><stop stop-opacity="1" stop-color="rgb(21.31958%, 69.194031%, 96.911621%)" offset="0.113281"/><stop stop-opacity="1" stop-color="rgb(21.203613%, 68.818665%, 96.385193%)" offset="0.117188"/><stop stop-opacity="1" stop-color="rgb(21.087646%, 68.443298%, 95.858765%)" offset="0.121094"/><stop stop-opacity="1" stop-color="rgb(20.973206%, 68.067932%, 95.332336%)" offset="0.125"/><stop stop-opacity="1" stop-color="rgb(20.857239%, 67.69104%, 94.805908%)" offset="0.128906"/><stop stop-opacity="1" stop-color="rgb(20.741272%, 67.315674%, 94.281006%)" offset="0.132812"/><stop stop-opacity="1" stop-color="rgb(20.625305%, 66.940308%, 93.754578%)" offset="0.136719"/><stop stop-opacity="1" stop-color="rgb(20.509338%, 66.564941%, 93.228149%)" offset="0.140625"/><stop stop-opacity="1" stop-color="rgb(20.393372%, 66.188049%, 92.701721%)" offset="0.144531"/><stop stop-opacity="1" stop-color="rgb(20.277405%, 65.812683%, 92.175293%)" offset="0.148438"/><stop stop-opacity="1" stop-color="rgb(20.161438%, 65.437317%, 91.648865%)" offset="0.152344"/><stop stop-opacity="1" stop-color="rgb(20.046997%, 65.061951%, 91.123962%)" offset="0.15625"/><stop stop-opacity="1" stop-color="rgb(19.93103%, 64.686584%, 90.597534%)" offset="0.160156"/><stop stop-opacity="1" stop-color="rgb(19.815063%, 64.311218%, 90.071106%)" offset="0.164062"/><stop stop-opacity="1" stop-color="rgb(19.699097%, 63.934326%, 89.544678%)" offset="0.167969"/><stop stop-opacity="1" stop-color="rgb(19.58313%, 63.55896%, 89.01825%)" offset="0.171875"/><stop stop-opacity="1" stop-color="rgb(19.467163%, 63.183594%, 88.491821%)" offset="0.175781"/><stop stop-opacity="1" stop-color="rgb(19.352722%, 62.808228%, 87.966919%)" offset="0.179688"/><stop stop-opacity="1" stop-color="rgb(19.236755%, 62.431335%, 87.440491%)" offset="0.183594"/><stop stop-opacity="1" stop-color="rgb(19.120789%, 62.055969%, 86.914062%)" offset="0.1875"/><stop stop-opacity="1" stop-color="rgb(19.004822%, 61.680603%, 86.387634%)" offset="0.191406"/><stop stop-opacity="1" stop-color="rgb(18.888855%, 61.305237%, 85.861206%)" offset="0.195313"/><stop stop-opacity="1" stop-color="rgb(18.772888%, 60.928345%, 85.334778%)" offset="0.199219"/><stop stop-opacity="1" stop-color="rgb(18.656921%, 60.552979%, 84.809875%)" offset="0.203125"/><stop stop-opacity="1" stop-color="rgb(18.540955%, 60.177612%, 84.283447%)" offset="0.207031"/><stop stop-opacity="1" stop-color="rgb(18.426514%, 59.802246%, 83.757019%)" offset="0.210938"/><stop stop-opacity="1" stop-color="rgb(18.310547%, 59.42688%, 83.230591%)" offset="0.214844"/><stop stop-opacity="1" stop-color="rgb(18.19458%, 59.051514%, 82.704163%)" offset="0.21875"/><stop stop-opacity="1" stop-color="rgb(18.078613%, 58.674622%, 82.177734%)" offset="0.222656"/><stop stop-opacity="1" stop-color="rgb(17.962646%, 58.299255%, 81.652832%)" offset="0.226563"/><stop stop-opacity="1" stop-color="rgb(17.84668%, 57.923889%, 81.126404%)" offset="0.230469"/><stop stop-opacity="1" stop-color="rgb(17.730713%, 57.548523%, 80.599976%)" offset="0.234375"/><stop stop-opacity="1" stop-color="rgb(17.614746%, 57.171631%, 80.073547%)" offset="0.238281"/><stop stop-opacity="1" stop-color="rgb(17.500305%, 56.796265%, 79.547119%)" offset="0.242188"/><stop stop-opacity="1" stop-color="rgb(17.384338%, 56.420898%, 79.020691%)" offset="0.246094"/><stop stop-opacity="1" stop-color="rgb(17.268372%, 56.045532%, 78.495789%)" offset="0.25"/><stop stop-opacity="1" stop-color="rgb(17.152405%, 55.670166%, 77.96936%)" offset="0.253906"/><stop stop-opacity="1" stop-color="rgb(17.036438%, 55.2948%, 77.442932%)" offset="0.257813"/><stop stop-opacity="1" stop-color="rgb(16.920471%, 54.917908%, 76.916504%)" offset="0.261719"/><stop stop-opacity="1" stop-color="rgb(16.80603%, 54.542542%, 76.390076%)" offset="0.265625"/><stop stop-opacity="1" stop-color="rgb(16.690063%, 54.167175%, 75.863647%)" offset="0.269531"/><stop stop-opacity="1" stop-color="rgb(16.574097%, 53.791809%, 75.338745%)" offset="0.273438"/><stop stop-opacity="1" stop-color="rgb(16.45813%, 53.414917%, 74.812317%)" offset="0.277344"/><stop stop-opacity="1" stop-color="rgb(16.342163%, 53.039551%, 74.285889%)" offset="0.28125"/><stop stop-opacity="1" stop-color="rgb(16.226196%, 52.664185%, 73.75946%)" offset="0.285156"/><stop stop-opacity="1" stop-color="rgb(16.110229%, 52.288818%, 73.233032%)" offset="0.289062"/><stop stop-opacity="1" stop-color="rgb(15.994263%, 51.911926%, 72.706604%)" offset="0.292969"/><stop stop-opacity="1" stop-color="rgb(15.879822%, 51.53656%, 72.181702%)" offset="0.296875"/><stop stop-opacity="1" stop-color="rgb(15.763855%, 51.161194%, 71.655273%)" offset="0.300781"/><stop stop-opacity="1" stop-color="rgb(15.647888%, 50.785828%, 71.128845%)" offset="0.304688"/><stop stop-opacity="1" stop-color="rgb(15.531921%, 50.410461%, 70.602417%)" offset="0.308594"/><stop stop-opacity="1" stop-color="rgb(15.415955%, 50.035095%, 70.075989%)" offset="0.3125"/><stop stop-opacity="1" stop-color="rgb(15.299988%, 49.658203%, 69.549561%)" offset="0.316406"/><stop stop-opacity="1" stop-color="rgb(15.184021%, 49.282837%, 69.024658%)" offset="0.320312"/><stop stop-opacity="1" stop-color="rgb(15.068054%, 48.907471%, 68.49823%)" offset="0.324219"/><stop stop-opacity="1" stop-color="rgb(14.953613%, 48.532104%, 67.971802%)" offset="0.328125"/><stop stop-opacity="1" stop-color="rgb(14.837646%, 48.155212%, 67.445374%)" offset="0.332031"/><stop stop-opacity="1" stop-color="rgb(14.72168%, 47.779846%, 66.920471%)" offset="0.335938"/><stop stop-opacity="1" stop-color="rgb(14.605713%, 47.40448%, 66.394043%)" offset="0.339844"/><stop stop-opacity="1" stop-color="rgb(14.489746%, 47.029114%, 65.867615%)" offset="0.34375"/><stop stop-opacity="1" stop-color="rgb(14.373779%, 46.653748%, 65.341187%)" offset="0.347656"/><stop stop-opacity="1" stop-color="rgb(14.259338%, 46.278381%, 64.814758%)" offset="0.351562"/><stop stop-opacity="1" stop-color="rgb(14.143372%, 45.901489%, 64.28833%)" offset="0.355469"/><stop stop-opacity="1" stop-color="rgb(14.027405%, 45.526123%, 63.763428%)" offset="0.359375"/><stop stop-opacity="1" stop-color="rgb(13.911438%, 45.150757%, 63.237%)" offset="0.363281"/><stop stop-opacity="1" stop-color="rgb(13.795471%, 44.775391%, 62.710571%)" offset="0.367188"/><stop stop-opacity="1" stop-color="rgb(13.679504%, 44.398499%, 62.184143%)" offset="0.371094"/><stop stop-opacity="1" stop-color="rgb(13.563538%, 44.023132%, 61.657715%)" offset="0.375"/><stop stop-opacity="1" stop-color="rgb(13.447571%, 43.647766%, 61.131287%)" offset="0.378906"/><stop stop-opacity="1" stop-color="rgb(13.33313%, 43.2724%, 60.606384%)" offset="0.382812"/><stop stop-opacity="1" stop-color="rgb(13.217163%, 42.895508%, 60.079956%)" offset="0.386719"/><stop stop-opacity="1" stop-color="rgb(13.101196%, 42.520142%, 59.553528%)" offset="0.390625"/><stop stop-opacity="1" stop-color="rgb(12.985229%, 42.144775%, 59.0271%)" offset="0.394531"/><stop stop-opacity="1" stop-color="rgb(12.869263%, 41.769409%, 58.500671%)" offset="0.398438"/><stop stop-opacity="1" stop-color="rgb(12.753296%, 41.394043%, 57.974243%)" offset="0.402344"/><stop stop-opacity="1" stop-color="rgb(12.638855%, 41.018677%, 57.449341%)" offset="0.40625"/><stop stop-opacity="1" stop-color="rgb(12.522888%, 40.641785%, 56.922913%)" offset="0.410156"/><stop stop-opacity="1" stop-color="rgb(12.406921%, 40.266418%, 56.396484%)" offset="0.414062"/><stop stop-opacity="1" stop-color="rgb(12.290955%, 39.891052%, 55.870056%)" offset="0.417969"/><stop stop-opacity="1" stop-color="rgb(12.174988%, 39.515686%, 55.343628%)" offset="0.421875"/><stop stop-opacity="1" stop-color="rgb(12.059021%, 39.138794%, 54.8172%)" offset="0.425781"/><stop stop-opacity="1" stop-color="rgb(11.943054%, 38.763428%, 54.292297%)" offset="0.429688"/><stop stop-opacity="1" stop-color="rgb(11.827087%, 38.388062%, 53.765869%)" offset="0.433594"/><stop stop-opacity="1" stop-color="rgb(11.712646%, 38.012695%, 53.239441%)" offset="0.4375"/><stop stop-opacity="1" stop-color="rgb(11.59668%, 37.637329%, 52.713013%)" offset="0.441406"/><stop stop-opacity="1" stop-color="rgb(11.480713%, 37.261963%, 52.186584%)" offset="0.445312"/><stop stop-opacity="1" stop-color="rgb(11.364746%, 36.885071%, 51.660156%)" offset="0.449219"/><stop stop-opacity="1" stop-color="rgb(11.248779%, 36.509705%, 51.135254%)" offset="0.453125"/><stop stop-opacity="1" stop-color="rgb(11.132812%, 36.134338%, 50.608826%)" offset="0.457031"/><stop stop-opacity="1" stop-color="rgb(11.016846%, 35.758972%, 50.082397%)" offset="0.460938"/><stop stop-opacity="1" stop-color="rgb(10.900879%, 35.38208%, 49.555969%)" offset="0.464844"/><stop stop-opacity="1" stop-color="rgb(10.786438%, 35.006714%, 49.029541%)" offset="0.46875"/><stop stop-opacity="1" stop-color="rgb(10.670471%, 34.631348%, 48.503113%)" offset="0.472656"/><stop stop-opacity="1" stop-color="rgb(10.554504%, 34.255981%, 47.97821%)" offset="0.476563"/><stop stop-opacity="1" stop-color="rgb(10.438538%, 33.879089%, 47.451782%)" offset="0.480469"/><stop stop-opacity="1" stop-color="rgb(10.322571%, 33.503723%, 46.925354%)" offset="0.484375"/><stop stop-opacity="1" stop-color="rgb(10.206604%, 33.128357%, 46.398926%)" offset="0.488281"/><stop stop-opacity="1" stop-color="rgb(10.092163%, 32.752991%, 45.872498%)" offset="0.492188"/><stop stop-opacity="1" stop-color="rgb(9.976196%, 32.377625%, 45.346069%)" offset="0.496094"/><stop stop-opacity="1" stop-color="rgb(9.860229%, 32.002258%, 44.821167%)" offset="0.5"/><stop stop-opacity="1" stop-color="rgb(9.744263%, 31.625366%, 44.294739%)" offset="0.503906"/><stop stop-opacity="1" stop-color="rgb(9.628296%, 31.25%, 43.768311%)" offset="0.507813"/><stop stop-opacity="1" stop-color="rgb(9.512329%, 30.874634%, 43.241882%)" offset="0.511719"/><stop stop-opacity="1" stop-color="rgb(9.396362%, 30.499268%, 42.715454%)" offset="0.515625"/><stop stop-opacity="1" stop-color="rgb(9.280396%, 30.122375%, 42.189026%)" offset="0.519531"/><stop stop-opacity="1" stop-color="rgb(9.165955%, 29.747009%, 41.664124%)" offset="0.523438"/><stop stop-opacity="1" stop-color="rgb(9.049988%, 29.371643%, 41.137695%)" offset="0.527344"/><stop stop-opacity="1" stop-color="rgb(8.934021%, 28.996277%, 40.611267%)" offset="0.53125"/><stop stop-opacity="1" stop-color="rgb(8.818054%, 28.620911%, 40.084839%)" offset="0.535156"/><stop stop-opacity="1" stop-color="rgb(8.702087%, 28.245544%, 39.558411%)" offset="0.539063"/><stop stop-opacity="1" stop-color="rgb(8.586121%, 27.868652%, 39.031982%)" offset="0.542969"/><stop stop-opacity="1" stop-color="rgb(8.470154%, 27.493286%, 38.50708%)" offset="0.546875"/><stop stop-opacity="1" stop-color="rgb(8.354187%, 27.11792%, 37.980652%)" offset="0.550781"/><stop stop-opacity="1" stop-color="rgb(8.239746%, 26.742554%, 37.454224%)" offset="0.554688"/><stop stop-opacity="1" stop-color="rgb(8.123779%, 26.365662%, 36.927795%)" offset="0.558594"/><stop stop-opacity="1" stop-color="rgb(8.007812%, 25.990295%, 36.401367%)" offset="0.5625"/><stop stop-opacity="1" stop-color="rgb(7.891846%, 25.614929%, 35.874939%)" offset="0.566406"/><stop stop-opacity="1" stop-color="rgb(7.775879%, 25.239563%, 35.350037%)" offset="0.570313"/><stop stop-opacity="1" stop-color="rgb(7.659912%, 24.864197%, 34.823608%)" offset="0.574219"/><stop stop-opacity="1" stop-color="rgb(7.545471%, 24.488831%, 34.29718%)" offset="0.578125"/><stop stop-opacity="1" stop-color="rgb(7.429504%, 24.111938%, 33.770752%)" offset="0.582031"/><stop stop-opacity="1" stop-color="rgb(7.313538%, 23.736572%, 33.244324%)" offset="0.585938"/><stop stop-opacity="1" stop-color="rgb(7.197571%, 23.361206%, 32.717896%)" offset="0.589844"/><stop stop-opacity="1" stop-color="rgb(7.081604%, 22.98584%, 32.192993%)" offset="0.59375"/><stop stop-opacity="1" stop-color="rgb(6.965637%, 22.608948%, 31.666565%)" offset="0.597656"/><stop stop-opacity="1" stop-color="rgb(6.84967%, 22.233582%, 31.140137%)" offset="0.601563"/><stop stop-opacity="1" stop-color="rgb(6.733704%, 21.858215%, 30.613708%)" offset="0.605469"/><stop stop-opacity="1" stop-color="rgb(6.619263%, 21.482849%, 30.08728%)" offset="0.609375"/><stop stop-opacity="1" stop-color="rgb(6.503296%, 21.105957%, 29.560852%)" offset="0.613281"/><stop stop-opacity="1" stop-color="rgb(6.387329%, 20.730591%, 29.03595%)" offset="0.617188"/><stop stop-opacity="1" stop-color="rgb(6.271362%, 20.355225%, 28.509521%)" offset="0.621094"/><stop stop-opacity="1" stop-color="rgb(6.155396%, 19.979858%, 27.983093%)" offset="0.625"/><stop stop-opacity="1" stop-color="rgb(6.039429%, 19.604492%, 27.456665%)" offset="0.628906"/><stop stop-opacity="1" stop-color="rgb(5.923462%, 19.229126%, 26.930237%)" offset="0.632813"/><stop stop-opacity="1" stop-color="rgb(5.807495%, 18.852234%, 26.403809%)" offset="0.636719"/><stop stop-opacity="1" stop-color="rgb(5.693054%, 18.476868%, 25.878906%)" offset="0.640625"/><stop stop-opacity="1" stop-color="rgb(5.577087%, 18.101501%, 25.352478%)" offset="0.644531"/><stop stop-opacity="1" stop-color="rgb(5.461121%, 17.726135%, 24.82605%)" offset="0.648438"/><stop stop-opacity="1" stop-color="rgb(5.345154%, 17.349243%, 24.299622%)" offset="0.652344"/><stop stop-opacity="1" stop-color="rgb(5.229187%, 16.973877%, 23.774719%)" offset="0.65625"/><stop stop-opacity="1" stop-color="rgb(5.11322%, 16.598511%, 23.248291%)" offset="0.660156"/><stop stop-opacity="1" stop-color="rgb(4.998779%, 16.223145%, 22.721863%)" offset="0.664063"/><stop stop-opacity="1" stop-color="rgb(4.882812%, 15.847778%, 22.195435%)" offset="0.667969"/><stop stop-opacity="1" stop-color="rgb(4.766846%, 15.472412%, 21.669006%)" offset="0.671875"/><stop stop-opacity="1" stop-color="rgb(4.650879%, 15.09552%, 21.142578%)" offset="0.675781"/><stop stop-opacity="1" stop-color="rgb(4.534912%, 14.720154%, 20.617676%)" offset="0.679688"/><stop stop-opacity="1" stop-color="rgb(4.418945%, 14.344788%, 20.091248%)" offset="0.683594"/><stop stop-opacity="1" stop-color="rgb(4.302979%, 13.969421%, 19.564819%)" offset="0.6875"/><stop stop-opacity="1" stop-color="rgb(4.187012%, 13.592529%, 19.038391%)" offset="0.691406"/><stop stop-opacity="1" stop-color="rgb(4.072571%, 13.217163%, 18.511963%)" offset="0.695313"/><stop stop-opacity="1" stop-color="rgb(3.956604%, 12.841797%, 17.985535%)" offset="0.699219"/><stop stop-opacity="1" stop-color="rgb(3.840637%, 12.466431%, 17.460632%)" offset="0.703125"/><stop stop-opacity="1" stop-color="rgb(3.72467%, 12.089539%, 16.934204%)" offset="0.707031"/><stop stop-opacity="1" stop-color="rgb(3.608704%, 11.714172%, 16.407776%)" offset="0.710938"/><stop stop-opacity="1" stop-color="rgb(3.492737%, 11.338806%, 15.881348%)" offset="0.714844"/><stop stop-opacity="1" stop-color="rgb(3.378296%, 10.96344%, 15.354919%)" offset="0.71875"/><stop stop-opacity="1" stop-color="rgb(3.262329%, 10.588074%, 14.828491%)" offset="0.722656"/><stop stop-opacity="1" stop-color="rgb(3.146362%, 10.212708%, 14.303589%)" offset="0.726563"/><stop stop-opacity="1" stop-color="rgb(3.030396%, 9.835815%, 13.777161%)" offset="0.730469"/><stop stop-opacity="1" stop-color="rgb(2.914429%, 9.460449%, 13.250732%)" offset="0.734375"/><stop stop-opacity="1" stop-color="rgb(2.798462%, 9.085083%, 12.724304%)" offset="0.738281"/><stop stop-opacity="1" stop-color="rgb(2.682495%, 8.709717%, 12.197876%)" offset="0.742188"/><stop stop-opacity="1" stop-color="rgb(2.566528%, 8.332825%, 11.671448%)" offset="0.746094"/><stop stop-opacity="1" stop-color="rgb(2.452087%, 7.957458%, 11.146545%)" offset="0.75"/><stop stop-opacity="1" stop-color="rgb(2.336121%, 7.582092%, 10.620117%)" offset="0.753906"/><stop stop-opacity="1" stop-color="rgb(2.220154%, 7.206726%, 10.093689%)" offset="0.757812"/><stop stop-opacity="1" stop-color="rgb(2.104187%, 6.83136%, 9.567261%)" offset="0.761719"/><stop stop-opacity="1" stop-color="rgb(1.98822%, 6.455994%, 9.040833%)" offset="0.765625"/><stop stop-opacity="1" stop-color="rgb(1.872253%, 6.079102%, 8.514404%)" offset="0.769531"/><stop stop-opacity="1" stop-color="rgb(1.756287%, 5.703735%, 7.989502%)" offset="0.773438"/><stop stop-opacity="1" stop-color="rgb(1.64032%, 5.328369%, 7.463074%)" offset="0.777344"/><stop stop-opacity="1" stop-color="rgb(1.525879%, 4.953003%, 6.936646%)" offset="0.78125"/><stop stop-opacity="1" stop-color="rgb(1.409912%, 4.576111%, 6.410217%)" offset="0.785156"/><stop stop-opacity="1" stop-color="rgb(1.293945%, 4.200745%, 5.883789%)" offset="0.789062"/><stop stop-opacity="1" stop-color="rgb(1.177979%, 3.825378%, 5.357361%)" offset="0.792969"/><stop stop-opacity="1" stop-color="rgb(1.062012%, 3.450012%, 4.832458%)" offset="0.796875"/><stop stop-opacity="1" stop-color="rgb(0.946045%, 3.07312%, 4.30603%)" offset="0.800781"/><stop stop-opacity="1" stop-color="rgb(0.831604%, 2.697754%, 3.779602%)" offset="0.804687"/><stop stop-opacity="1" stop-color="rgb(0.715637%, 2.322388%, 3.253174%)" offset="0.808594"/><stop stop-opacity="1" stop-color="rgb(0.59967%, 1.947021%, 2.726746%)" offset="0.8125"/><stop stop-opacity="1" stop-color="rgb(0.483704%, 1.571655%, 2.200317%)" offset="0.816406"/><stop stop-opacity="1" stop-color="rgb(0.367737%, 1.196289%, 1.675415%)" offset="0.820312"/><stop stop-opacity="1" stop-color="rgb(0.25177%, 0.819397%, 1.148987%)" offset="0.824219"/><stop stop-opacity="1" stop-color="rgb(0.135803%, 0.444031%, 0.622559%)" offset="0.828125"/><stop stop-opacity="1" stop-color="rgb(0.0671387%, 0.221252%, 0.311279%)" offset="0.832031"/><stop stop-opacity="1" stop-color="rgb(0%, 0%, 0%)" offset="0.835937"/><stop stop-opacity="1" stop-color="rgb(0%, 0%, 0%)" offset="0.84375"/><stop stop-opacity="1" stop-color="rgb(0%, 0%, 0%)" offset="0.875"/><stop stop-opacity="1" stop-color="rgb(0%, 0%, 0%)" offset="1"/></linearGradient><clipPath id="52cd3c4861"><rect x="0" width="127" y="0" height="134"/></clipPath><mask id="3ca6719cf2"><g filter="url(#e145189de8)"><rect x="-37.5" width="450" fill="#000000" y="-37.499999" height="449.999989" fill-opacity="0.81"/></g></mask><clipPath id="1a8eeffc98"><rect x="0" width="200" y="0" height="45"/></clipPath><mask id="f179505575"><g filter="url(#e145189de8)"><rect x="-37.5" width="450" fill="#000000" y="-37.499999" height="449.999989" fill-opacity="0.81"/></g></mask><clipPath id="4b9d264656"><rect x="0" width="69" y="0" height="27"/></clipPath></defs><g mask="url(#69ed984774)"><g transform="matrix(1, 0, 0, 1, 124, 84)"><g clip-path="url(#52cd3c4861)"><g clip-path="url(#a11795593b)"><g clip-path="url(#673e066fca)"><path fill="url(#25266919ea)" d="M 0.558594 1.109375 L 0.558594 133.855469 L 126.320312 133.855469 L 126.320312 1.109375 Z M 0.558594 1.109375 " fill-rule="nonzero"/></g></g></g></g></g><g mask="url(#3ca6719cf2)"><g transform="matrix(1, 0, 0, 1, 89, 223)"><g clip-path="url(#1a8eeffc98)"><g fill="#38b6ff" fill-opacity="1"><g transform="translate(0.787876, 37.044431)"><g><path d="M 11.0625 0.28125 C 9.1875 0.28125 7.539062 -0.0820312 6.125 -0.8125 C 4.707031 -1.539062 3.613281 -2.566406 2.84375 -3.890625 C 2.070312 -5.210938 1.6875 -6.738281 1.6875 -8.46875 L 1.6875 -16.78125 C 1.6875 -18.507812 2.070312 -20.035156 2.84375 -21.359375 C 3.613281 -22.679688 4.707031 -23.703125 6.125 -24.421875 C 7.539062 -25.140625 9.1875 -25.5 11.0625 -25.5 C 12.90625 -25.5 14.53125 -25.15625 15.9375 -24.46875 C 17.34375 -23.789062 18.4375 -22.820312 19.21875 -21.5625 C 20 -20.300781 20.390625 -18.835938 20.390625 -17.171875 C 20.390625 -16.960938 20.195312 -16.832031 19.8125 -16.78125 L 15.953125 -16.53125 L 15.8125 -16.53125 C 15.476562 -16.53125 15.3125 -16.59375 15.3125 -16.71875 L 15.3125 -16.921875 C 15.3125 -18.203125 14.921875 -19.222656 14.140625 -19.984375 C 13.359375 -20.753906 12.332031 -21.140625 11.0625 -21.140625 C 9.757812 -21.140625 8.71875 -20.753906 7.9375 -19.984375 C 7.15625 -19.222656 6.765625 -18.203125 6.765625 -16.921875 L 6.765625 -8.25 C 6.765625 -7 7.15625 -5.988281 7.9375 -5.21875 C 8.71875 -4.445312 9.757812 -4.0625 11.0625 -4.0625 C 12.332031 -4.0625 13.359375 -4.445312 14.140625 -5.21875 C 14.921875 -5.988281 15.3125 -7 15.3125 -8.25 C 15.3125 -8.363281 15.363281 -8.460938 15.46875 -8.546875 C 15.570312 -8.640625 15.722656 -8.671875 15.921875 -8.640625 L 19.765625 -8.46875 C 20.179688 -8.414062 20.390625 -8.351562 20.390625 -8.28125 L 20.390625 -8.109375 C 20.390625 -6.453125 20 -4.984375 19.21875 -3.703125 C 18.4375 -2.429688 17.34375 -1.445312 15.9375 -0.75 C 14.53125 -0.0625 12.90625 0.28125 11.0625 0.28125 Z M 11.0625 0.28125 "/></g></g></g><g fill="#38b6ff" fill-opacity="1"><g transform="translate(25.245247, 37.044431)"><g><path d="M 11.171875 0.390625 C 9.296875 0.390625 7.640625 0.0078125 6.203125 -0.75 C 4.773438 -1.519531 3.664062 -2.59375 2.875 -3.96875 C 2.082031 -5.351562 1.6875 -6.945312 1.6875 -8.75 L 1.6875 -16.453125 C 1.6875 -18.234375 2.082031 -19.804688 2.875 -21.171875 C 3.664062 -22.546875 4.773438 -23.609375 6.203125 -24.359375 C 7.640625 -25.117188 9.296875 -25.5 11.171875 -25.5 C 13.066406 -25.5 14.726562 -25.117188 16.15625 -24.359375 C 17.582031 -23.609375 18.691406 -22.546875 19.484375 -21.171875 C 20.273438 -19.804688 20.671875 -18.234375 20.671875 -16.453125 L 20.671875 -8.75 C 20.671875 -6.945312 20.273438 -5.347656 19.484375 -3.953125 C 18.691406 -2.566406 17.582031 -1.492188 16.15625 -0.734375 C 14.726562 0.015625 13.066406 0.390625 11.171875 0.390625 Z M 11.171875 -3.96875 C 12.484375 -3.96875 13.546875 -4.382812 14.359375 -5.21875 C 15.179688 -6.0625 15.59375 -7.179688 15.59375 -8.578125 L 15.59375 -16.5 C 15.59375 -17.882812 15.191406 -19.003906 14.390625 -19.859375 C 13.585938 -20.710938 12.515625 -21.140625 11.171875 -21.140625 C 9.847656 -21.140625 8.78125 -20.710938 7.96875 -19.859375 C 7.164062 -19.003906 6.765625 -17.882812 6.765625 -16.5 L 6.765625 -8.578125 C 6.765625 -7.179688 7.164062 -6.0625 7.96875 -5.21875 C 8.78125 -4.382812 9.847656 -3.96875 11.171875 -3.96875 Z M 11.171875 -3.96875 "/></g></g></g><g fill="#38b6ff" fill-opacity="1"><g transform="translate(50.170861, 37.044431)"><g><path d="M 2.8125 0 C 2.40625 0 2.203125 -0.203125 2.203125 -0.609375 L 2.203125 -24.59375 C 2.203125 -25 2.40625 -25.203125 2.8125 -25.203125 L 6.515625 -25.203125 C 6.828125 -25.203125 7.066406 -25.070312 7.234375 -24.8125 L 16.25 -9.828125 C 16.289062 -9.734375 16.34375 -9.695312 16.40625 -9.71875 C 16.46875 -9.75 16.5 -9.8125 16.5 -9.90625 L 16.5 -24.59375 C 16.5 -25 16.703125 -25.203125 17.109375 -25.203125 L 20.890625 -25.203125 C 21.296875 -25.203125 21.5 -25 21.5 -24.59375 L 21.5 -0.609375 C 21.5 -0.203125 21.296875 0 20.890625 0 L 17.21875 0 C 16.925781 0 16.6875 -0.144531 16.5 -0.4375 L 7.453125 -15.5625 C 7.410156 -15.65625 7.359375 -15.6875 7.296875 -15.65625 C 7.234375 -15.632812 7.203125 -15.578125 7.203125 -15.484375 L 7.234375 -0.609375 C 7.234375 -0.203125 7.03125 0 6.625 0 Z M 2.8125 0 "/></g></g></g><g fill="#38b6ff" fill-opacity="1"><g transform="translate(76.429183, 37.044431)"><g><path d="M 19.40625 -25.203125 C 19.820312 -25.203125 20.03125 -25 20.03125 -24.59375 L 20.03125 -21.421875 C 20.03125 -21.015625 19.820312 -20.8125 19.40625 -20.8125 L 13.1875 -20.8125 C 13.039062 -20.8125 12.96875 -20.738281 12.96875 -20.59375 L 12.96875 -0.609375 C 12.96875 -0.203125 12.765625 0 12.359375 0 L 8.5 0 C 8.09375 0 7.890625 -0.203125 7.890625 -0.609375 L 7.890625 -20.59375 C 7.890625 -20.738281 7.816406 -20.8125 7.671875 -20.8125 L 1.625 -20.8125 C 1.21875 -20.8125 1.015625 -21.015625 1.015625 -21.421875 L 1.015625 -24.59375 C 1.015625 -25 1.21875 -25.203125 1.625 -25.203125 Z M 19.40625 -25.203125 "/></g></g></g><g fill="#38b6ff" fill-opacity="1"><g transform="translate(100.058108, 37.044431)"><g><path d="M 18.40625 0 C 18.070312 0 17.84375 -0.164062 17.71875 -0.5 L 16.71875 -3.859375 C 16.6875 -3.972656 16.613281 -4.03125 16.5 -4.03125 L 7.671875 -4.03125 C 7.546875 -4.03125 7.472656 -3.972656 7.453125 -3.859375 L 6.453125 -0.5 C 6.328125 -0.164062 6.097656 0 5.765625 0 L 1.578125 0 C 1.367188 0 1.210938 -0.0625 1.109375 -0.1875 C 1.015625 -0.320312 1.003906 -0.488281 1.078125 -0.6875 L 8.75 -24.703125 C 8.875 -25.035156 9.101562 -25.203125 9.4375 -25.203125 L 14.734375 -25.203125 C 15.066406 -25.203125 15.296875 -25.035156 15.421875 -24.703125 L 23.09375 -0.6875 C 23.113281 -0.632812 23.125 -0.5625 23.125 -0.46875 C 23.125 -0.320312 23.070312 -0.207031 22.96875 -0.125 C 22.875 -0.0390625 22.742188 0 22.578125 0 Z M 8.71875 -8.21875 C 8.695312 -8.039062 8.753906 -7.953125 8.890625 -7.953125 L 15.265625 -7.953125 C 15.410156 -7.953125 15.472656 -8.039062 15.453125 -8.21875 L 12.203125 -19.203125 C 12.179688 -19.296875 12.140625 -19.34375 12.078125 -19.34375 C 12.023438 -19.34375 11.972656 -19.296875 11.921875 -19.203125 Z M 8.71875 -8.21875 "/></g></g></g><g fill="#38b6ff" fill-opacity="1"><g transform="translate(126.784667, 37.044431)"><g><path d="M 11.0625 0.28125 C 9.1875 0.28125 7.539062 -0.0820312 6.125 -0.8125 C 4.707031 -1.539062 3.613281 -2.566406 2.84375 -3.890625 C 2.070312 -5.210938 1.6875 -6.738281 1.6875 -8.46875 L 1.6875 -16.78125 C 1.6875 -18.507812 2.070312 -20.035156 2.84375 -21.359375 C 3.613281 -22.679688 4.707031 -23.703125 6.125 -24.421875 C 7.539062 -25.140625 9.1875 -25.5 11.0625 -25.5 C 12.90625 -25.5 14.53125 -25.15625 15.9375 -24.46875 C 17.34375 -23.789062 18.4375 -22.820312 19.21875 -21.5625 C 20 -20.300781 20.390625 -18.835938 20.390625 -17.171875 C 20.390625 -16.960938 20.195312 -16.832031 19.8125 -16.78125 L 15.953125 -16.53125 L 15.8125 -16.53125 C 15.476562 -16.53125 15.3125 -16.59375 15.3125 -16.71875 L 15.3125 -16.921875 C 15.3125 -18.203125 14.921875 -19.222656 14.140625 -19.984375 C 13.359375 -20.753906 12.332031 -21.140625 11.0625 -21.140625 C 9.757812 -21.140625 8.71875 -20.753906 7.9375 -19.984375 C 7.15625 -19.222656 6.765625 -18.203125 6.765625 -16.921875 L 6.765625 -8.25 C 6.765625 -7 7.15625 -5.988281 7.9375 -5.21875 C 8.71875 -4.445312 9.757812 -4.0625 11.0625 -4.0625 C 12.332031 -4.0625 13.359375 -4.445312 14.140625 -5.21875 C 14.921875 -5.988281 15.3125 -7 15.3125 -8.25 C 15.3125 -8.363281 15.363281 -8.460938 15.46875 -8.546875 C 15.570312 -8.640625 15.722656 -8.671875 15.921875 -8.640625 L 19.765625 -8.46875 C 20.179688 -8.414062 20.390625 -8.351562 20.390625 -8.28125 L 20.390625 -8.109375 C 20.390625 -6.453125 20 -4.984375 19.21875 -3.703125 C 18.4375 -2.429688 17.34375 -1.445312 15.9375 -0.75 C 14.53125 -0.0625 12.90625 0.28125 11.0625 0.28125 Z M 11.0625 0.28125 "/></g></g></g><g fill="#38b6ff" fill-opacity="1"><g transform="translate(151.242036, 37.044431)"><g><path d="M 19.40625 -25.203125 C 19.820312 -25.203125 20.03125 -25 20.03125 -24.59375 L 20.03125 -21.421875 C 20.03125 -21.015625 19.820312 -20.8125 19.40625 -20.8125 L 13.1875 -20.8125 C 13.039062 -20.8125 12.96875 -20.738281 12.96875 -20.59375 L 12.96875 -0.609375 C 12.96875 -0.203125 12.765625 0 12.359375 0 L 8.5 0 C 8.09375 0 7.890625 -0.203125 7.890625 -0.609375 L 7.890625 -20.59375 C 7.890625 -20.738281 7.816406 -20.8125 7.671875 -20.8125 L 1.625 -20.8125 C 1.21875 -20.8125 1.015625 -21.015625 1.015625 -21.421875 L 1.015625 -24.59375 C 1.015625 -25 1.21875 -25.203125 1.625 -25.203125 Z M 19.40625 -25.203125 "/></g></g></g><g fill="#38b6ff" fill-opacity="1"><g transform="translate(174.870972, 37.044431)"><g><path d="M 10.734375 0.28125 C 8.859375 0.28125 7.210938 -0.0234375 5.796875 -0.640625 C 4.378906 -1.265625 3.285156 -2.140625 2.515625 -3.265625 C 1.753906 -4.398438 1.375 -5.722656 1.375 -7.234375 L 1.375 -7.84375 C 1.375 -8.257812 1.578125 -8.46875 1.984375 -8.46875 L 5.765625 -8.46875 C 6.171875 -8.46875 6.375 -8.3125 6.375 -8 L 6.375 -7.484375 C 6.375 -6.523438 6.8125 -5.710938 7.6875 -5.046875 C 8.5625 -4.390625 9.707031 -4.0625 11.125 -4.0625 C 12.394531 -4.0625 13.335938 -4.332031 13.953125 -4.875 C 14.566406 -5.414062 14.875 -6.082031 14.875 -6.875 C 14.875 -7.457031 14.679688 -7.945312 14.296875 -8.34375 C 13.910156 -8.738281 13.394531 -9.082031 12.75 -9.375 C 12.101562 -9.675781 11.054688 -10.09375 9.609375 -10.625 C 7.984375 -11.175781 6.617188 -11.738281 5.515625 -12.3125 C 4.410156 -12.894531 3.472656 -13.679688 2.703125 -14.671875 C 1.929688 -15.671875 1.546875 -16.90625 1.546875 -18.375 C 1.546875 -19.8125 1.914062 -21.066406 2.65625 -22.140625 C 3.40625 -23.222656 4.445312 -24.050781 5.78125 -24.625 C 7.113281 -25.207031 8.632812 -25.5 10.34375 -25.5 C 12.164062 -25.5 13.796875 -25.171875 15.234375 -24.515625 C 16.671875 -23.867188 17.789062 -22.960938 18.59375 -21.796875 C 19.40625 -20.640625 19.8125 -19.289062 19.8125 -17.75 L 19.8125 -17.390625 C 19.8125 -16.984375 19.609375 -16.78125 19.203125 -16.78125 L 15.421875 -16.78125 C 15.003906 -16.78125 14.796875 -16.898438 14.796875 -17.140625 L 14.796875 -17.5 C 14.796875 -18.507812 14.378906 -19.367188 13.546875 -20.078125 C 12.722656 -20.785156 11.59375 -21.140625 10.15625 -21.140625 C 9 -21.140625 8.109375 -20.898438 7.484375 -20.421875 C 6.867188 -19.941406 6.5625 -19.28125 6.5625 -18.4375 C 6.5625 -17.84375 6.738281 -17.335938 7.09375 -16.921875 C 7.457031 -16.515625 8.003906 -16.144531 8.734375 -15.8125 C 9.460938 -15.476562 10.597656 -15.046875 12.140625 -14.515625 C 13.816406 -13.890625 15.144531 -13.34375 16.125 -12.875 C 17.113281 -12.40625 18 -11.691406 18.78125 -10.734375 C 19.5625 -9.773438 19.953125 -8.535156 19.953125 -7.015625 C 19.953125 -5.554688 19.570312 -4.273438 18.8125 -3.171875 C 18.0625 -2.066406 16.992188 -1.210938 15.609375 -0.609375 C 14.234375 -0.015625 12.609375 0.28125 10.734375 0.28125 Z M 10.734375 0.28125 "/></g></g></g></g></g></g><g mask="url(#f179505575)"><g transform="matrix(1, 0, 0, 1, 154, 263)"><g clip-path="url(#4b9d264656)"><g fill="#fffefe" fill-opacity="1"><g transform="translate(0.910312, 22.288145)"><g><path d="M 7.546875 0 C 7.421875 0 7.335938 -0.0546875 7.296875 -0.171875 L 5.109375 -6.796875 C 5.085938 -6.835938 5.054688 -6.859375 5.015625 -6.859375 L 3.15625 -6.859375 C 3.09375 -6.859375 3.0625 -6.832031 3.0625 -6.78125 L 3.0625 -0.21875 C 3.0625 -0.0703125 2.992188 0 2.859375 0 L 1.765625 0 C 1.617188 0 1.546875 -0.0703125 1.546875 -0.21875 L 1.546875 -14.796875 C 1.546875 -14.941406 1.617188 -15.015625 1.765625 -15.015625 L 5.296875 -15.015625 C 6.335938 -15.015625 7.179688 -14.628906 7.828125 -13.859375 C 8.472656 -13.097656 8.796875 -12.101562 8.796875 -10.875 C 8.796875 -9.945312 8.59375 -9.144531 8.1875 -8.46875 C 7.789062 -7.800781 7.25 -7.332031 6.5625 -7.0625 C 6.507812 -7.039062 6.488281 -7.003906 6.5 -6.953125 L 8.84375 -0.234375 L 8.859375 -0.15625 C 8.859375 -0.0507812 8.796875 0 8.671875 0 Z M 3.15625 -13.6875 C 3.09375 -13.6875 3.0625 -13.65625 3.0625 -13.59375 L 3.0625 -8.171875 C 3.0625 -8.117188 3.09375 -8.09375 3.15625 -8.09375 L 5.078125 -8.09375 C 5.742188 -8.09375 6.273438 -8.34375 6.671875 -8.84375 C 7.066406 -9.351562 7.265625 -10.03125 7.265625 -10.875 C 7.265625 -11.71875 7.066406 -12.394531 6.671875 -12.90625 C 6.273438 -13.425781 5.742188 -13.6875 5.078125 -13.6875 Z M 3.15625 -13.6875 "/></g></g></g><g fill="#fffefe" fill-opacity="1"><g transform="translate(11.939499, 22.288145)"><g><path d="M 8.34375 -13.90625 C 8.34375 -13.757812 8.269531 -13.6875 8.125 -13.6875 L 3.15625 -13.6875 C 3.09375 -13.6875 3.0625 -13.65625 3.0625 -13.59375 L 3.0625 -8.28125 C 3.0625 -8.21875 3.09375 -8.1875 3.15625 -8.1875 L 6.28125 -8.1875 C 6.425781 -8.1875 6.5 -8.117188 6.5 -7.984375 L 6.5 -7.0625 C 6.5 -6.914062 6.425781 -6.84375 6.28125 -6.84375 L 3.15625 -6.84375 C 3.09375 -6.84375 3.0625 -6.8125 3.0625 -6.75 L 3.0625 -1.421875 C 3.0625 -1.359375 3.09375 -1.328125 3.15625 -1.328125 L 8.125 -1.328125 C 8.269531 -1.328125 8.34375 -1.253906 8.34375 -1.109375 L 8.34375 -0.21875 C 8.34375 -0.0703125 8.269531 0 8.125 0 L 1.765625 0 C 1.617188 0 1.546875 -0.0703125 1.546875 -0.21875 L 1.546875 -14.796875 C 1.546875 -14.941406 1.617188 -15.015625 1.765625 -15.015625 L 8.125 -15.015625 C 8.269531 -15.015625 8.34375 -14.941406 8.34375 -14.796875 Z M 8.34375 -13.90625 "/></g></g></g><g fill="#fffefe" fill-opacity="1"><g transform="translate(22.66829, 22.288145)"><g><path d="M 4.828125 0.171875 C 3.722656 0.171875 2.835938 -0.160156 2.171875 -0.828125 C 1.515625 -1.503906 1.1875 -2.410156 1.1875 -3.546875 L 1.1875 -11.5 C 1.1875 -12.613281 1.515625 -13.503906 2.171875 -14.171875 C 2.835938 -14.847656 3.722656 -15.1875 4.828125 -15.1875 C 5.941406 -15.1875 6.832031 -14.851562 7.5 -14.1875 C 8.164062 -13.519531 8.5 -12.625 8.5 -11.5 L 8.5 -11.140625 C 8.5 -10.992188 8.425781 -10.921875 8.28125 -10.921875 L 7.171875 -10.859375 C 7.023438 -10.859375 6.953125 -10.925781 6.953125 -11.0625 L 6.953125 -11.609375 C 6.953125 -12.273438 6.757812 -12.816406 6.375 -13.234375 C 5.988281 -13.648438 5.472656 -13.859375 4.828125 -13.859375 C 4.203125 -13.859375 3.691406 -13.648438 3.296875 -13.234375 C 2.898438 -12.816406 2.703125 -12.273438 2.703125 -11.609375 L 2.703125 -3.40625 C 2.703125 -2.738281 2.898438 -2.195312 3.296875 -1.78125 C 3.691406 -1.363281 4.203125 -1.15625 4.828125 -1.15625 C 5.472656 -1.15625 5.988281 -1.363281 6.375 -1.78125 C 6.757812 -2.195312 6.953125 -2.738281 6.953125 -3.40625 L 6.953125 -3.953125 C 6.953125 -4.085938 7.023438 -4.15625 7.171875 -4.15625 L 8.28125 -4.09375 C 8.425781 -4.09375 8.5 -4.023438 8.5 -3.890625 L 8.5 -3.546875 C 8.5 -2.410156 8.160156 -1.503906 7.484375 -0.828125 C 6.816406 -0.160156 5.929688 0.171875 4.828125 0.171875 Z M 4.828125 0.171875 "/></g></g></g><g fill="#fffefe" fill-opacity="1"><g transform="translate(33.761851, 22.288145)"><g><path d="M 4.875 0.171875 C 3.769531 0.171875 2.878906 -0.171875 2.203125 -0.859375 C 1.523438 -1.546875 1.1875 -2.453125 1.1875 -3.578125 L 1.1875 -11.4375 C 1.1875 -12.5625 1.523438 -13.46875 2.203125 -14.15625 C 2.878906 -14.84375 3.769531 -15.1875 4.875 -15.1875 C 5.988281 -15.1875 6.890625 -14.84375 7.578125 -14.15625 C 8.265625 -13.46875 8.609375 -12.5625 8.609375 -11.4375 L 8.609375 -3.578125 C 8.609375 -2.460938 8.265625 -1.554688 7.578125 -0.859375 C 6.890625 -0.171875 5.988281 0.171875 4.875 0.171875 Z M 4.875 -1.15625 C 5.53125 -1.15625 6.0625 -1.375 6.46875 -1.8125 C 6.875 -2.25 7.078125 -2.8125 7.078125 -3.5 L 7.078125 -11.5 C 7.078125 -12.195312 6.875 -12.765625 6.46875 -13.203125 C 6.0625 -13.640625 5.53125 -13.859375 4.875 -13.859375 C 4.226562 -13.859375 3.703125 -13.640625 3.296875 -13.203125 C 2.898438 -12.765625 2.703125 -12.195312 2.703125 -11.5 L 2.703125 -3.5 C 2.703125 -2.8125 2.898438 -2.25 3.296875 -1.8125 C 3.703125 -1.375 4.226562 -1.15625 4.875 -1.15625 Z M 4.875 -1.15625 "/></g></g></g><g fill="#fffefe" fill-opacity="1"><g transform="translate(45.069986, 22.288145)"><g><path d="M 7.546875 0 C 7.421875 0 7.335938 -0.0546875 7.296875 -0.171875 L 5.109375 -6.796875 C 5.085938 -6.835938 5.054688 -6.859375 5.015625 -6.859375 L 3.15625 -6.859375 C 3.09375 -6.859375 3.0625 -6.832031 3.0625 -6.78125 L 3.0625 -0.21875 C 3.0625 -0.0703125 2.992188 0 2.859375 0 L 1.765625 0 C 1.617188 0 1.546875 -0.0703125 1.546875 -0.21875 L 1.546875 -14.796875 C 1.546875 -14.941406 1.617188 -15.015625 1.765625 -15.015625 L 5.296875 -15.015625 C 6.335938 -15.015625 7.179688 -14.628906 7.828125 -13.859375 C 8.472656 -13.097656 8.796875 -12.101562 8.796875 -10.875 C 8.796875 -9.945312 8.59375 -9.144531 8.1875 -8.46875 C 7.789062 -7.800781 7.25 -7.332031 6.5625 -7.0625 C 6.507812 -7.039062 6.488281 -7.003906 6.5 -6.953125 L 8.84375 -0.234375 L 8.859375 -0.15625 C 8.859375 -0.0507812 8.796875 0 8.671875 0 Z M 3.15625 -13.6875 C 3.09375 -13.6875 3.0625 -13.65625 3.0625 -13.59375 L 3.0625 -8.171875 C 3.0625 -8.117188 3.09375 -8.09375 3.15625 -8.09375 L 5.078125 -8.09375 C 5.742188 -8.09375 6.273438 -8.34375 6.671875 -8.84375 C 7.066406 -9.351562 7.265625 -10.03125 7.265625 -10.875 C 7.265625 -11.71875 7.066406 -12.394531 6.671875 -12.90625 C 6.273438 -13.425781 5.742188 -13.6875 5.078125 -13.6875 Z M 3.15625 -13.6875 "/></g></g></g><g fill="#fffefe" fill-opacity="1"><g transform="translate(56.099172, 22.288145)"><g><path d="M 1.765625 0 C 1.617188 0 1.546875 -0.0703125 1.546875 -0.21875 L 1.546875 -14.796875 C 1.546875 -14.941406 1.617188 -15.015625 1.765625 -15.015625 L 5.0625 -15.015625 C 6.164062 -15.015625 7.046875 -14.648438 7.703125 -13.921875 C 8.359375 -13.203125 8.6875 -12.238281 8.6875 -11.03125 L 8.6875 -3.984375 C 8.6875 -2.773438 8.359375 -1.804688 7.703125 -1.078125 C 7.046875 -0.359375 6.164062 0 5.0625 0 Z M 3.0625 -1.421875 C 3.0625 -1.359375 3.09375 -1.328125 3.15625 -1.328125 L 5.046875 -1.34375 C 5.671875 -1.34375 6.171875 -1.585938 6.546875 -2.078125 C 6.929688 -2.566406 7.128906 -3.222656 7.140625 -4.046875 L 7.140625 -10.96875 C 7.140625 -11.8125 6.953125 -12.472656 6.578125 -12.953125 C 6.210938 -13.441406 5.703125 -13.6875 5.046875 -13.6875 L 3.15625 -13.6875 C 3.09375 -13.6875 3.0625 -13.65625 3.0625 -13.59375 Z M 3.0625 -1.421875 "/></g></g></g></g></g></g></svg>